<svg xmlns="http://www.w3.org/2000/svg" xmlns:svg="http://www.w3.org/2000/svg" viewBox="221.97 88.2 180.62 232.27">
 <!-- Created with SVG-edit - https://github.com/SVG-Edit/svgedit-->
 <g class="layer" display="inline">
  <title>Layer 1</title>
  <path d="m387.516663,195.716675c3,1 6.5,5 7.233337,6.283325c0.733337,1.283325 0.266663,12.216675 -1.733337,23.216675l-5.75,13.5c-2,4 1.25,10 -4.75,12c-6,2 -9.75,-3 -10.516663,-3.716675" fill="none" id="svg_16" stroke="#000000" stroke-dasharray="null" stroke-linecap="null" stroke-linejoin="null" stroke-width="3" style="--darkreader-inline-stroke: #e8e6e3;" data-darkreader-inline-stroke=""/>
  <path d="m242.766663,188.150434c0,-3.013599 -2,-25.113323 -1,-32.145054c1,-7.031731 18,-60.321838 66,-60.285575c48,0.036263 57,16.063461 72,56.244778c15,40.181317 6,45.194916 6,50.203982c0,5.009066 -4,17.090659 -3.766663,16.370735c0.233337,-0.719923 -7.233337,20.742588 -9.233337,26.747121c-2,6.004533 -1,18.208515 -12,39.303707c-11,21.095192 -14,25.081593 -45,28.122389c-31,3.040796 -48,-23.23118 -54,-36.258377c-6,-13.027198 -8,-34.086126 -14,-52.140521c-6,-18.054395 -4,-22.099725 -4.766663,-22.819648c-0.766663,-0.719923 -0.233337,-13.343538 -0.233337,-13.343538z" fill="none" id="svg_9" stroke="#000000" stroke-width="3" style="--darkreader-inline-stroke: #e8e6e3;" data-darkreader-inline-stroke=""/>
  <path d="m247.478201,223.678213c0,0 6,-9 6,-12c0,-3 -3,-27 -4,-30c-1,-3 9,-19 9,-26c0,-7 -0.692308,-29.923077 12.002568,-23.908982c12.694876,6.014095 33.266663,14.562828 33.228201,14.620521c-0.038462,0.057692 21.961538,-1.711538 45.961538,-15.711538c24,-14 18.807692,40 20.807692,50c2,10 11,42 10.233337,41.283325" fill="none" id="svg_14" stroke="#000000" stroke-dasharray="null" stroke-linecap="null" stroke-linejoin="null" stroke-width="2" style="--darkreader-inline-stroke: #e8e6e3; --darkreader-inline-fill: #990000;" data-darkreader-inline-stroke=""/>
  <path d="m243.516663,203.716675c-2,2 2.75,-8.25 -9.25,-4.25c-12,4 2.25,28.25 3,32c0.75,3.75 3,13 9,21c6,8 8.25,-4 7.483337,-4.716675" fill="none" id="svg_15" stroke="#000000" stroke-dasharray="null" stroke-linecap="null" stroke-linejoin="null" stroke-width="3" style="--darkreader-inline-stroke: #e8e6e3;" data-darkreader-inline-stroke=""/>
  <path d="m297.333313,243.112488l7.916687,8.137512l9.5,5.25c0,0 6.083313,-4.137512 10.083313,-7.387512c4,-3.25 5.75,-5.75 5.666687,-5.862488" fill="none" id="svg_40" stroke="#000000" stroke-dasharray="null" stroke-linecap="null" stroke-linejoin="null" stroke-width="2" style="--darkreader-inline-stroke: #e8e6e3;" data-darkreader-inline-stroke=""/>
  <path d="m303.01287,203.028846c0,0 4.807692,13.461539 3.846154,16.346154c-0.961538,2.884615 -4.807692,21.153847 -8.653846,23.076924c-3.846154,1.923077 12.5,0 15.384616,10.576923c2.884615,10.576923 -0.961538,-7.692308 16.346154,-9.615385l-9.615385,-22.115385c-1.923077,-6.730769 -0.961538,-13.461539 2.884615,-17.307693" fill="none" id="svg_17" stroke="#000000" stroke-dasharray="null" stroke-linecap="null" stroke-linejoin="null" stroke-width="2" style="--darkreader-inline-stroke: #e8e6e3;" data-darkreader-inline-stroke=""/>
  <path d="m259.633313,199.712524c0,-0.25 4.2,-12.25 11.116687,-14.212524c6.916687,-1.962524 17.083313,-0.037476 19.583313,0.962524c2.5,1 10.5,9 10.416687,8.787476c-0.083313,-0.212524 -4.116687,-2.237476 -18.75,-1.75c-14.633313,0.487476 -22.366687,6.212524 -22.366687,6.212524z" fill="none" id="svg_21" stroke="#000000" stroke-dasharray="null" stroke-linecap="null" stroke-linejoin="null" stroke-width="2" style="--darkreader-inline-stroke: #e8e6e3;" data-darkreader-inline-stroke=""/>
  <path d="m323.340456,193.298239c1.805562,-2.987508 7.182553,-7.496445 14.238116,-9.983953l12.064286,-1.35c4.25,1.5 10.519027,3.319667 13.269027,8.069667c2.75,4.75 4.021429,10.828571 2.338116,10.016047c-1.683313,-0.812524 -7.966687,-5.887475 -13.45,-7.95c-5.483313,-2.062524 -30.265106,4.185747 -28.459544,1.198239z" fill="none" id="svg_23" stroke="#000000" stroke-dasharray="null" stroke-linecap="null" stroke-linejoin="null" stroke-width="2" style="--darkreader-inline-stroke: #e8e6e3;" data-darkreader-inline-stroke=""/>
  <path d="m297.333313,242.9375c-10.694438,5.854167 -24.74998,18.5625 -25.583313,20.5625c-0.833333,2 5.583333,14.5 9.5,20.25" fill="none" id="svg_25" stroke="#000000" stroke-dasharray="null" stroke-linecap="null" stroke-linejoin="null" style="--darkreader-inline-stroke: #e8e6e3;" data-darkreader-inline-stroke=""/>
  <path d="m328.083313,238.6875c7.472229,7.604167 19.75002,17.229167 21.916687,21.0625c2.166667,3.833333 -1.666667,15.416667 -7,19.75" fill="none" id="svg_26" stroke="#000000" stroke-dasharray="null" stroke-linecap="null" stroke-linejoin="null" style="--darkreader-inline-stroke: #e8e6e3;" data-darkreader-inline-stroke=""/>
  <path d="m304.333313,208.537476c-4.777771,3.904175 -9.805542,11.05835 -14.583313,13.462524c-4.777771,2.404175 -9.916687,1.287476 -14.916687,0.037476c-5,-1.25 -12,-9.75 -12.083313,-9.787476" fill="none" id="svg_27" stroke="#000000" stroke-dasharray="null" stroke-linecap="null" stroke-linejoin="null" style="--darkreader-inline-stroke: #e8e6e3;" data-darkreader-inline-stroke=""/>
  <path d="m320.333313,210.212524c6.5,5.75 8,8.25 14.666687,9.537476c6.666687,1.287476 16.583313,-1.037476 19,-2.5c2.416687,-1.462524 4.833313,-4.537476 7.25,-8.25" fill="none" id="svg_29" stroke="#000000" stroke-dasharray="null" stroke-linecap="null" stroke-linejoin="null" style="--darkreader-inline-stroke: #e8e6e3;" data-darkreader-inline-stroke=""/>
  <path d="m261.333313,230.037476c0.472229,6.070841 2.166687,9.962524 2.916687,16.212524c0.75,6.25 2,10 4.75,15.25" fill="none" id="svg_32" stroke="#000000" stroke-dasharray="null" stroke-linecap="null" stroke-linejoin="null" style="--darkreader-inline-stroke: #e8e6e3;" data-darkreader-inline-stroke=""/>
  <path d="m364.333313,224.537476c0,0 -0.25,3.5 -1.5,9.25c-1.25,5.75 -3.5,19.75 -5.583313,25.212524" fill="none" id="svg_33" stroke="#000000" stroke-dasharray="null" stroke-linecap="null" stroke-linejoin="null" style="--darkreader-inline-stroke: #e8e6e3;" data-darkreader-inline-stroke=""/>
  <path d="m287.333313,265.862488l3.916687,-2.112488c4.25,0.25 6.083313,-1.387512 9.583313,-1.637512c3.5,-0.25 7.25,0.5 10.916687,0.637512c3.666687,0.137512 9.333313,-0.637512 13,-0.75c3.666687,-0.112488 5.833313,2.112488 8,2.25c2.166687,0.137512 5.833313,1.362488 6.5,1.75c0.666687,0.387512 -5.166687,2.362488 -8.75,2.25c-3.583313,-0.112488 -17.916687,-0.137512 -18,-0.25c-0.083313,-0.112488 -18.916687,1.112488 -25.166687,-2.137512z" fill="none" id="svg_37" stroke="#000000" stroke-dasharray="null" stroke-linecap="null" stroke-linejoin="null" stroke-width="2" style="--darkreader-inline-stroke: #e8e6e3;" data-darkreader-inline-stroke=""/>
  <path d="m287.208313,265.983337l11.041687,5.766663c5.75,1.75 7.25,1.75 13.5,1.5c6.25,-0.25 10.166667,0.75 17.5,-0.75c3.416667,-2 7.083333,-3.25 10.25,-6" fill="none" id="svg_41" stroke="#000000" stroke-dasharray="null" stroke-linecap="null" stroke-linejoin="null" stroke-width="2" style="--darkreader-inline-stroke: #e8e6e3;" data-darkreader-inline-stroke=""/>
  <path d="m295.237488,277.708313c3.087504,2.430562 5.925008,2.611125 10.512512,4.041687c4.587504,1.430562 9.666667,0.75 12.5,0.75c2.833333,0 9.333333,-1.833333 12.5,-5" fill="none" id="svg_42" stroke="#000000" stroke-dasharray="null" stroke-linecap="null" stroke-linejoin="null" style="--darkreader-inline-stroke: #e8e6e3;" data-darkreader-inline-stroke=""/>
  <path d="m268.397484,207.125c-0.057692,-1.384615 5.006362,-8.451923 12.987131,-9.048077c7.980769,-0.596154 16.897485,3.124999 16.820562,6.163461c-0.076923,3.038462 -5.173077,8.153846 -14.551331,8.509616c-9.378254,0.355769 -15.19867,-4.240385 -15.256362,-5.625z" fill="none" id="svg_18" stroke="#000000" stroke-dasharray="null" stroke-linecap="null" stroke-linejoin="null" stroke-width="2" style="--darkreader-inline-stroke: #e8e6e3; --darkreader-inline-fill: #000000;" data-darkreader-inline-stroke=""/>
  <path d="m325.833313,206.712524c0,-0.25 9.5,-7.25 15.5,-8c6,-0.75 14,4.75 14.75,7c0.75,2.25 -5.75,4.75 -14.083313,5.537476c-8.333313,0.787476 -16.166687,-4.537476 -16.166687,-4.537476z" fill="none" id="svg_20" stroke="#000000" stroke-dasharray="null" stroke-linecap="null" stroke-linejoin="null" stroke-width="2" style="--darkreader-inline-stroke: #e8e6e3; --darkreader-inline-fill: #000000;" data-darkreader-inline-stroke=""/>
 </g>
</svg>